<svg width="17" height="16" viewBox="0 0 17 16" fill="none" xmlns="http://www.w3.org/2000/svg">
<path d="M6.99175 10.5339H2.72724" stroke="white" stroke-width="1.5" stroke-linecap="round" stroke-linejoin="round"/>
<path d="M8.89386 4.38066H13.1584" stroke="white" stroke-width="1.5" stroke-linecap="round" stroke-linejoin="round"/>
<path fill-rule="evenodd" clip-rule="evenodd" d="M5.90621 4.3463C5.90621 3.52376 5.19001 2.8568 4.30676 2.8568C3.42351 2.8568 2.70732 3.52376 2.70732 4.3463C2.70732 5.16884 3.42351 5.83581 4.30676 5.83581C5.19001 5.83581 5.90621 5.16884 5.90621 4.3463Z" stroke="white" stroke-width="1.5" stroke-linecap="round" stroke-linejoin="round"/>
<path fill-rule="evenodd" clip-rule="evenodd" d="M13.5366 10.5091C13.5366 9.68651 12.8209 9.01955 11.9377 9.01955C11.0539 9.01955 10.3377 9.68651 10.3377 10.5091C10.3377 11.3316 11.0539 11.9986 11.9377 11.9986C12.8209 11.9986 13.5366 11.3316 13.5366 10.5091Z" stroke="white" stroke-width="1.5" stroke-linecap="round" stroke-linejoin="round"/>
</svg>
