<svg width="40" height="40" viewBox="0 0 40 40" fill="none" xmlns="http://www.w3.org/2000/svg">
<rect x="0.5" y="0.5" width="39" height="39" rx="19.5" stroke="#EDEDED"/>
<path fill-rule="evenodd" clip-rule="evenodd" d="M15 16C14.4477 16 14 16.4477 14 17C14 17.5523 14.4477 18 15 18H25C25.5523 18 26 17.5523 26 17C26 16.4477 25.5523 16 25 16H15ZM18.6923 22C18.14 22 17.6923 22.4477 17.6923 23C17.6923 23.5523 18.14 24 18.6923 24H25C25.5522 24 26 23.5523 26 23C26 22.4477 25.5522 22 25 22H18.6923Z" fill="#1B2028"/>
</svg>
