<svg width="26" height="26" viewBox="0 0 26 26" fill="none" xmlns="http://www.w3.org/2000/svg">
<rect x="0.5" y="0.5" width="25" height="25" rx="12.5" fill="white"/>
<rect x="0.5" y="0.5" width="25" height="25" rx="12.5" stroke="#EDEDED"/>
<path d="M12.772 18.114C12.42 18.114 12.052 18.084 11.668 18.024C11.288 17.964 10.926 17.874 10.582 17.754V16.914C10.83 16.998 11.08 17.068 11.332 17.124C11.588 17.176 11.838 17.216 12.082 17.244C12.326 17.272 12.56 17.286 12.784 17.286C13.52 17.286 14.064 17.148 14.416 16.872C14.768 16.592 14.944 16.186 14.944 15.654C14.944 15.202 14.81 14.858 14.542 14.622C14.278 14.382 13.826 14.178 13.186 14.01L12.706 13.884C11.95 13.692 11.384 13.402 11.008 13.014C10.632 12.622 10.444 12.106 10.444 11.466C10.444 10.702 10.708 10.102 11.236 9.666C11.768 9.226 12.558 9.006 13.606 9.006C13.95 9.006 14.29 9.03 14.626 9.078C14.962 9.122 15.268 9.188 15.544 9.276V10.116C15.24 10.02 14.926 9.95 14.602 9.906C14.282 9.858 13.958 9.834 13.63 9.834C13.122 9.834 12.706 9.896 12.382 10.02C12.058 10.144 11.818 10.324 11.662 10.56C11.506 10.796 11.428 11.08 11.428 11.412C11.428 11.848 11.55 12.186 11.794 12.426C12.038 12.666 12.46 12.866 13.06 13.026L13.546 13.146C14.09 13.286 14.538 13.466 14.89 13.686C15.242 13.902 15.504 14.168 15.676 14.484C15.848 14.796 15.934 15.166 15.934 15.594C15.934 16.13 15.81 16.586 15.562 16.962C15.314 17.334 14.954 17.62 14.482 17.82C14.01 18.016 13.44 18.114 12.772 18.114Z" fill="#1B2028"/>
</svg>
